#!OML:ASF H:\Not Pregnant\Project 1\Capture day 1\Session 1\non-pregnant.ASF
:FULLY-SPECIFIED
:DEGREES
298
root -5.17398 16.0076 36.4062 142.806 -82.672 -128.101
lowerback -1.4291 -0.475534 -0.578149
upperback -7.66385 -0.805308 1.84575
thorax -7.14997 -0.404165 2.30674
lowerneck 13.1881 -7.2875 -28.5974
upperneck -5.98377 -16.8065 46.8353
head 3.98695 -11.4609 25.5554
rclavicle -1.05604e-014 1.90833e-014
rhumerus -47.1306 23.9167 -97.5752
rradius 56.613
rwrist -22.1579
rhand -10.9815 -15.8295
rfingers 7.12502
rthumb 15.0383 -45.2634
lclavicle -1.05604e-014 1.90833e-014
lhumerus -39.0654 -19.355 106.952
lradius 41.4744
lwrist 46.8578
lhand -16.3217 -15.506
lfingers 7.12502
lthumb 9.8898 14.2417
rfemur -30.3795 -2.61044 22.0786
rtibia 36.6506
rfoot -20.8354 3.14632
rtoes -24.7279
lfemur -28.4351 2.12818 -20.2022
ltibia 29.76
lfoot -16.8133 -2.30927
ltoes -15.46
299
root -5.19006 16.0121 36.3789 139.537 -83.0291 -124.957
lowerback -1.51767 -0.557343 -0.729903
upperback -7.68264 -0.919145 1.86376
thorax -7.11221 -0.451006 2.41467
lowerneck 13.43 -7.38455 -28.7083
upperneck -6.12738 -16.9713 46.7773
head 3.98061 -11.5556 25.496
rclavicle -3.40419e-015 4.77083e-015
rhumerus -47.0927 23.1531 -97.1882
rradius 55.3193
rwrist -22.1798
rhand -8.79166 -15.9364
rfingers 7.12502
rthumb 17.147 -45.1998
lclavicle -3.40419e-015 4.77083e-015
lhumerus -39.8408 -20.3707 107.662
lradius 42.0151
lwrist 47.87
lhand -15.6681 -15.1039
lfingers 7.12502
lthumb 10.5203 14.6128
rfemur -29.9509 -2.35682 21.8808
rtibia 36.0959
rfoot -20.3183 3.26966
rtoes -24.9553
lfemur -28.16 1.88192 -20.1033
ltibia 29.5678
lfoot -16.8393 -2.56357
ltoes -15.3618
300
root -5.20542 16.0154 36.3521 135.922 -83.3639 -121.471
lowerback -1.58097 -0.638185 -0.858396
upperback -7.70741 -1.03121 1.87407
thorax -7.09543 -0.498496 2.50179
lowerneck 13.66 -7.47676 -28.8155
upperneck -6.25442 -17.1277 46.711
head 3.97471 -11.6428 25.4289
rclavicle -3.32964e-015 1.15295e-014
rhumerus -47.0255 22.3421 -96.7908
rradius 53.9393
rwrist -22.0922
rhand -6.89485 -15.9387
rfingers 7.12502
rthumb 18.972 -45.0335
lclavicle -3.32964e-015 1.15295e-014
lhumerus -40.6493 -21.345 108.366
lradius 42.5692
lwrist 48.8369
lhand -15.3753 -14.6974
lfingers 7.12502
lthumb 10.8028 15.0048
rfemur -29.5186 -2.15627 21.7169
rtibia 35.542
rfoot -19.6655 3.44051
rtoes -25.229
lfemur -27.8954 1.60639 -20.0023
ltibia 29.3933
lfoot -16.8567 -2.78394
ltoes -15.3652
301
root -5.22034 16.0182 36.3267 131.967 -83.6665 -117.639
lowerback -1.63227 -0.720931 -0.939622
upperback -7.74249 -1.14558 1.87296
thorax -7.09695 -0.550476 2.5509
lowerneck 13.8757 -7.55902 -28.9251
upperneck -6.35473 -17.2736 46.6386
head 3.97277 -11.7223 25.3611
rclavicle -1.34428e-014 1.47101e-014
rhumerus -46.9346 21.4922 -96.3962
rradius 52.4755
rwrist -21.8699
rhand -5.34376 -15.8528
rfingers 7.12502
rthumb 20.4631 -44.7945
lclavicle -1.34428e-014 1.47101e-014
lhumerus -41.4513 -22.1961 108.992
lradius 43.1149
lwrist 49.8159
lhand -15.2131 -14.28
lfingers 7.12502
lthumb 10.9593 15.414
rfemur -29.0916 -1.98319 21.5787
rtibia 34.9923
rfoot -18.9008 3.68295
rtoes -25.32
lfemur -27.6505 1.30736 -19.8993
ltibia 29.2341
lfoot -16.8665 -2.97986
ltoes -15.3981
302
root -5.23525 16.0207 36.3031 127.73 -83.9217 -113.507
lowerback -1.69479 -0.795658 -0.960178
upperback -7.79005 -1.24928 1.85595
thorax -7.10696 -0.601791 2.54878
lowerneck 14.0953 -7.64067 -29.0249
upperneck -6.44533 -17.4233 46.5668
head 3.97306 -11.8044 25.2909
rclavicle -3.65267e-015 -9.93923e-015
rhumerus -46.8145 20.5657 -95.9801
rradius 50.9218
rwrist -21.4282
rhand -4.02434 -15.6365
rfingers 7.12502
rthumb 21.7306 -44.4368
lclavicle -3.65267e-015 -9.93923e-015
lhumerus -42.2476 -22.947 109.545
lradius 43.6335
lwrist 50.7211
lhand -15.1926 -13.8735
lfingers 7.12502
lthumb 10.9789 15.8194
rfemur -28.6831 -1.84607 21.4693
rtibia 34.4535
rfoot -18.0944 4.00664
rtoes -25.1057
lfemur -27.4368 1.00428 -19.791
ltibia 29.0882
lfoot -16.8741 -3.15592
ltoes -15.457
303
root -5.25113 16.0236 36.2809 123.489 -84.1192 -109.353
lowerback -1.79487 -0.851622 -0.948048
upperback -7.83786 -1.32789 1.82895
thorax -7.09752 -0.643585 2.51573
lowerneck 14.3222 -7.72897 -29.1098
upperneck -6.54572 -17.582 46.4999
head 3.97251 -11.8926 25.2169
rclavicle -2.78547e-014 3.18055e-015
rhumerus -46.6486 19.5597 -95.519
rradius 49.2735
rwrist -20.723
rhand -2.89614 -15.2773
rfingers 7.12502
rthumb 22.8136 -43.9481
lclavicle -2.78547e-014 3.18055e-015
lhumerus -43.0161 -23.6108 110.029
lradius 44.0965
lwrist 51.4987
lhand -15.2572 -13.5313
lfingers 7.12502
lthumb 10.9167 16.1649
rfemur -28.2866 -1.72688 21.3881
rtibia 33.9326
rfoot -17.3347 4.33327
rtoes -24.6892
lfemur -27.2424 0.730358 -19.6803
ltibia 28.9494
lfoot -16.8842 -3.33041
ltoes -15.4905
304
root -5.26799 16.0267 36.2604 119.46 -84.2639 -105.389
lowerback -1.9453 -0.886432 -0.910856
upperback -7.8819 -1.37818 1.79649
thorax -7.057 -0.67376 2.4602
lowerneck 14.5571 -7.81934 -29.1981
upperneck -6.6619 -17.7469 46.4456
head 3.97266 -11.9873 25.1556
rclavicle -3.97569e-016 5.56597e-015
rhumerus -46.4406 18.5027 -95.003
rradius 47.5442
rwrist -19.7298
rhand -1.96886 -14.7848
rfingers 7.12502
rthumb 23.7033 -43.3432
lclavicle -3.97569e-016 5.56597e-015
lhumerus -43.7304 -24.1648 110.431
lradius 44.4798
lwrist 52.1174
lhand -15.3231 -13.2661
lfingers 7.12502
lthumb 10.8531 16.4334
rfemur -27.9066 -1.63205 21.3258
rtibia 33.4409
rfoot -16.6891 4.6293
rtoes -24.1291
lfemur -27.0694 0.498276 -19.5756
ltibia 28.8176
lfoot -16.9016 -3.5037
ltoes -15.5026
305
root -5.28643 16.0303 36.2379 115.87 -84.3619 -101.866
lowerback -2.13112 -0.90976 -0.918549
upperback -7.91373 -1.41293 1.78244
thorax -6.98257 -0.693147 2.44708
lowerneck 14.783 -7.90374 -29.3009
upperneck -6.77542 -17.903 46.3875
head 3.9725 -12.0755 25.0982
rclavicle -3.10601e-015 -7.95139e-016
rhumerus -46.186 17.4062 -94.4143
rradius 45.7245
rwrist -18.4239
rhand -1.16819 -14.1746
rfingers 7.12502
rthumb 24.471 -42.6314
lclavicle -3.10601e-015 -7.95139e-016
lhumerus -44.3748 -24.572 110.742
lradius 44.7684
lwrist 52.5467
lhand -15.3557 -13.1048
lfingers 7.12502
lthumb 10.8217 16.5964
rfemur -27.5117 -1.54442 21.2992
rtibia 32.9884
rfoot -16.2217 4.79424
rtoes -23.778
lfemur -26.8829 0.359095 -19.4737
ltibia 28.6907
lfoot -16.9439 -3.70802
ltoes -15.5039
306
root -5.30554 16.0335 36.2156 112.612 -84.4211 -98.6786
lowerback -2.33578 -0.912108 -0.916541
upperback -7.93572 -1.41915 1.76396
thorax -6.88842 -0.699283 2.42197
lowerneck 15.0075 -7.99476 -29.3869
upperneck -6.90479 -18.0625 46.3359
head 3.9692 -12.1664 25.0376
rclavicle 1.59525e-014 0
rhumerus -45.8804 16.2009 -93.7516
rradius 43.8296
rwrist -16.8457
rhand -0.609434 -13.5314
rfingers 7.12502
rthumb 25.0065 -41.9147
lclavicle 1.59525e-014 0
lhumerus -44.9652 -24.8964 110.971
lradius 44.9713
lwrist 52.8166
lhand -15.3719 -13.0417
lfingers 7.12502
lthumb 10.8061 16.6603
rfemur -27.1154 -1.50137 21.3097
rtibia 32.5836
rfoot -15.9323 4.85862
rtoes -23.7245
lfemur -26.6919 0.268827 -19.3695
ltibia 28.5673
lfoot -16.9949 -3.91971
ltoes -15.4895
307
root -5.3242 16.0365 36.1933 109.515 -84.4613 -95.6613
lowerback -2.52719 -0.90527 -0.910425
upperback -7.95198 -1.41273 1.73988
thorax -6.79662 -0.699347 2.3885
lowerneck 15.2284 -8.08496 -29.4676
upperneck -7.04088 -18.2197 46.2923
head 3.96486 -12.2571 24.9833
rclavicle 2.93207e-015 2.38542e-015
rhumerus -45.5443 14.8997 -93.0268
rradius 41.8898
rwrist -15.0548
rhand -0.377522 -12.913
rfingers 7.12502
rthumb 25.2287 -41.2652
lclavicle 2.93207e-015 2.38542e-015
lhumerus -45.4976 -25.1244 111.108
lradius 45.1034
lwrist 52.9495
lhand -15.3971 -13.0148
lfingers 7.12502
lthumb 10.7818 16.6885
rfemur -26.7114 -1.50214 21.339
rtibia 32.2221
rfoot -15.7742 4.87822
rtoes -23.8343
lfemur -26.492 0.199415 -19.2695
ltibia 28.4465
lfoot -17.0487 -4.13159
ltoes -15.4878
